<svg width="86" height="46" viewBox="0 0 86 46" fill="none" xmlns="http://www.w3.org/2000/svg">
<path d="M12.48 0.256638H18.56L14.592 45.0566H3.968L0 0.256638H6.08L9.28 35.6486L12.48 0.256638ZM20.7875 45.0566V6.20864H19.8275L20.4675 0.256638H26.8675V45.0566H20.7875ZM45.213 39.1046V45.0566H29.405V40.3846C29.405 39.4886 29.5117 38.7206 29.725 38.0806L39.133 6.59264C39.1757 6.37931 39.0903 6.27264 38.877 6.27264H29.405V0.320637H45.213V4.99264C45.213 5.88864 45.1063 6.65664 44.893 7.29664L36.061 38.7846C36.0183 38.998 36.1037 39.1046 36.317 39.1046H45.213ZM64.42 39.3606C64.42 41.1526 63.8653 42.6033 62.756 43.7126C61.6467 44.7793 60.196 45.3126 58.404 45.3126H53.796C52.004 45.3126 50.5533 44.7793 49.444 43.7126C48.3347 42.6033 47.78 41.1526 47.78 39.3606V5.95264C47.78 4.16064 48.3347 2.7313 49.444 1.66464C50.5533 0.555304 52.004 0.000637054 53.796 0.000637054H58.404C60.196 0.000637054 61.6467 0.555304 62.756 1.66464C63.8653 2.7313 64.42 4.16064 64.42 5.95264V39.3606ZM54.18 5.95264C53.9667 5.95264 53.86 6.05931 53.86 6.27264V39.0406C53.86 39.254 53.9667 39.3606 54.18 39.3606H58.02C58.2333 39.3606 58.34 39.254 58.34 39.0406V6.27264C58.34 6.05931 58.2333 5.95264 58.02 5.95264H54.18ZM66.3275 6.20864L66.9675 0.256638H77.0795C78.8715 0.256638 80.3222 0.811305 81.4315 1.92064C82.5408 2.9873 83.0955 4.41664 83.0955 6.20864V26.2406C83.0955 27.1793 82.9035 28.0326 82.5195 28.8006C82.1355 29.526 81.6235 30.1446 80.9835 30.6566L85.0795 45.0566H78.9355L75.2875 32.1926H73.3675V45.0566H67.2875V6.20864H66.3275ZM76.6955 6.20864H73.3675V26.2406H76.6955C76.9088 26.2406 77.0155 26.134 77.0155 25.9206V6.52864C77.0155 6.3153 76.9088 6.20864 76.6955 6.20864Z" fill="black"/>
</svg>
